<svg id="Layer_1" data-name="Layer 1" xmlns="http://www.w3.org/2000/svg" viewBox="0 0 60 60"><defs><style>.cls-1{fill:#00005b;}.cls-2{fill:#99f;}</style></defs><g id="vlpa"><g id="vlpb"><g id="vlpc"><g id="vlpd"><path class="cls-1" d="M10.62,0H49.38A10.75,10.75,0,0,1,60,10.9V49.1A10.75,10.75,0,0,1,49.38,60H10.62A10.75,10.75,0,0,1,0,49.1V10.9A10.75,10.75,0,0,1,10.62,0Z"/></g></g></g><g id="vlpe"><g id="vlpf"><path class="cls-2" d="M14.25,42.05V15.64c0-.18.07-.28.25-.28.43,0,.82,0,1.4,0s1.22,0,1.9-.05,1.4,0,2.17,0,1.53,0,2.28,0A14.34,14.34,0,0,1,27.4,16a8.92,8.92,0,0,1,3.35,2.1A8.14,8.14,0,0,1,32.57,21a9.89,9.89,0,0,1,.58,3.33,9.35,9.35,0,0,1-1.5,5.46,8.59,8.59,0,0,1-4,3.13,15.83,15.83,0,0,1-5.62.87c-.6,0-1,0-1.25,0s-.6,0-1.08,0V42a.32.32,0,0,1-.27.36H14.55c-.2,0-.3-.1-.3-.33ZM19.7,20.33V29c.35,0,.68.05,1,.05H22a9.09,9.09,0,0,0,2.88-.46,4.29,4.29,0,0,0,2.05-1.36,4.05,4.05,0,0,0,.77-2.64,4.15,4.15,0,0,0-.58-2.28,3.66,3.66,0,0,0-1.74-1.47,7.39,7.39,0,0,0-3-.51c-.65,0-1.22,0-1.7,0a5.8,5.8,0,0,0-1,0Z"/><path class="cls-2" d="M36.75,21.85h4.37a.56.56,0,0,1,.53.41,2.22,2.22,0,0,1,.15.64c.05.25.1.54.13.79s0,.59,0,.93a9.31,9.31,0,0,1,2.67-2.21,7.55,7.55,0,0,1,3.8-1,.31.31,0,0,1,.35.28v5.1c0,.21-.13.29-.4.29a10.62,10.62,0,0,0-2.7.25,10.16,10.16,0,0,0-2.1.7,3.83,3.83,0,0,0-1.28.94V42.05c0,.26-.1.36-.32.36H37.07a.35.35,0,0,1-.4-.31V27.79c0-.61,0-1.25,0-1.92s0-1.33,0-2-.05-1.15-.1-1.74a.23.23,0,0,1,.17-.28s0,0,.08,0Z"/></g></g></g></svg>