<svg id="Layer_1" data-name="Layer 1" xmlns="http://www.w3.org/2000/svg" viewBox="0 0 60 60"><defs><style>.cls-1{fill:#ff9548;}.cls-2{fill:#ff6b00;}.cls-3{fill:#933c00;}.cls-4{fill:#fff;}</style></defs><g id="g8"><path id="path8" class="cls-1" d="M9.72,0,0,5.59l.05,0L2,5.46,9.45,1.4Z"/><path id="path1" class="cls-1" d="M9.62.09,9.71,0q0,21.08,0,42.15C8.07,43.08,1.1,47,0,47.64q0-21,0-42C2.22,3.67,7.72,2.07,9.62.09Z"/></g><g id="_ff6b00ff" data-name="#ff6b00ff"><path id="path2" class="cls-2" d="M9.71,0H52.49a3.37,3.37,0,0,1,3,2.88c.05,2.18,0,4.37,0,6.56v32.7q-22.92,0-45.84,0Q9.66,21.08,9.71,0m16.2,9.5c0,7.76,0,15.53,0,23.29,2.07,0,4.14,0,6.21,0,0-3.13,0-6.26,0-9.4,2.71,0,5.42,0,8.13,0,0-1.38,0-2.76,0-4.15-2.71,0-5.41,0-8.12,0,0-1.85,0-3.7,0-5.55,3.22-.05,6.44,0,9.66,0V9.5Z"/></g><g id="_933c00ff" data-name="#933c00ff"><path id="path3" class="cls-3" d="M55.56,9.44c1.48,0,3,0,4.44,0C59.94,26.31,60,43.16,60,60H8.25c-1.45-.29-2.86-1.33-2.92-2.82,0-4.18,0-8.36,0-12.54l4.41-2.49q22.92,0,45.84,0V9.44M38.7,46.65a2.32,2.32,0,0,0-.23,3.94c1.07.59,2.33.74,3.45,1.22a1,1,0,0,1,.23,1.64c-1,.58-2.75.21-2.78-1.11H37.2a2.85,2.85,0,0,0,1,2.07,5,5,0,0,0,3.81.83,3,3,0,0,0,2.79-2,2.49,2.49,0,0,0-.7-2.51c-1.09-.85-2.59-.89-3.81-1.51a.77.77,0,0,1-.07-1.35c.92-.5,2.35-.12,2.45,1h2.14a2.67,2.67,0,0,0-1.67-2.36,5.6,5.6,0,0,0-4.4.18M21,46.32c0,2.93,0,5.87,0,8.8.77,0,1.54,0,2.31,0,.08-1.2,0-2.41,0-3.61h3.07c0-.52,0-1,0-1.55H23.37c0-.68,0-1.37,0-2.06,1.23-.06,2.45,0,3.68,0V46.3c-2,0-4,0-6,0m7.21,0c.08,2.29-.12,4.6.11,6.88.44,2.22,3.7,2.76,5.29,1.3.06.21.13.42.2.63.66,0,1.31,0,2,0,.1-2.95,0-5.91,0-8.86-.78,0-1.56,0-2.34,0,0,2.06,0,4.12,0,6.19.21,1.46-2.82,1.72-2.91.2-.07-2.14,0-4.27,0-6.41Z"/></g><g id="_ffffffff" data-name="#ffffffff"><path id="path4" class="cls-4" d="M25.91,9.5H41.76v4.19c-3.22,0-6.44,0-9.66,0,0,1.85,0,3.7,0,5.55,2.71,0,5.41,0,8.12,0,0,1.39,0,2.77,0,4.15-2.71,0-5.42,0-8.13,0,0,3.14,0,6.27,0,9.4-2.07,0-4.14,0-6.21,0C25.91,25,25.92,17.26,25.91,9.5Z"/><path id="path5" class="cls-4" d="M38.7,46.65a5.6,5.6,0,0,1,4.4-.18,2.67,2.67,0,0,1,1.67,2.36H42.63c-.1-1.12-1.53-1.5-2.45-1a.77.77,0,0,0,.07,1.35c1.22.62,2.72.66,3.81,1.51a2.49,2.49,0,0,1,.7,2.51,3,3,0,0,1-2.79,2,5,5,0,0,1-3.81-.83,2.85,2.85,0,0,1-1-2.07h2.17c0,1.32,1.75,1.69,2.78,1.11a1,1,0,0,0-.23-1.64c-1.12-.48-2.38-.63-3.45-1.22A2.32,2.32,0,0,1,38.7,46.65Z"/><path id="path6" class="cls-4" d="M21,46.32c2,0,4,0,6,0v1.59c-1.23,0-2.45,0-3.68,0,0,.69,0,1.38,0,2.06h3.07c0,.52,0,1,0,1.55H23.38c0,1.2,0,2.41,0,3.61-.77,0-1.54,0-2.31,0C21,52.19,21.06,49.25,21,46.32Z"/><path id="path7" class="cls-4" d="M28.23,46.31h2.34c0,2.14,0,4.27,0,6.41.09,1.52,3.12,1.26,2.91-.2,0-2.07,0-4.13,0-6.19.78,0,1.56,0,2.34,0,0,3,.07,5.91,0,8.86-.66,0-1.31,0-2,0-.07-.21-.14-.42-.2-.63-1.59,1.46-4.85.92-5.29-1.3C28.11,50.91,28.31,48.6,28.23,46.31Z"/></g></svg>