<svg id="Layer_1" data-name="Layer 1" xmlns="http://www.w3.org/2000/svg" viewBox="0 0 59.85 57.43"><defs><style>.cls-1,.cls-3{fill:#314cb0;}.cls-1{stroke:#1d2d68;stroke-width:4.85px;}.cls-2{fill:#fff;}.cls-4{fill:#f70;}</style></defs><g id="layer1"><path id="rect3438-4-1-6-9-8-4" class="cls-1" d="M2.86,5.3H57a.44.44,0,0,1,.44.43V54.57A.44.44,0,0,1,57,55H2.86a.43.43,0,0,1-.43-.43V5.73A.43.43,0,0,1,2.86,5.3Z"/><path id="path3008" class="cls-2" d="M16.39,25.89l8-9.52C26,14.43,26.86,13,26.86,12a2.16,2.16,0,0,0-.14-.84h14a16.28,16.28,0,0,0-4,3.54c-.43.48-1.18,1.34-2.26,2.6L24,29.59,36.48,45.8c.77,1,1.73,2.08,2.91,3.31a13,13,0,0,0,1.36,1.13H26.41a4.27,4.27,0,0,0,.17-1.08q0-1.44-2.12-4.17L16.39,34.65V45.12q0,3.65,1.56,5.12H4.84A4.68,4.68,0,0,0,6.23,47.9a14.81,14.81,0,0,0,.17-2.75V16.26a14.81,14.81,0,0,0-.17-2.75,4.64,4.64,0,0,0-1.39-2.34H18q-1.56,1.47-1.56,5.09v9.63"/><path id="path3010" class="cls-2" d="M53.87,21.54V45.62A17.21,17.21,0,0,0,54,48.08a4.2,4.2,0,0,0,1.17,2.16H42.87a4.15,4.15,0,0,0,1.18-2.16,17.21,17.21,0,0,0,.11-2.46V26.1a16.76,16.76,0,0,0-.11-2.44,4.17,4.17,0,0,0-1.15-2.12h11M49,7.82A5.49,5.49,0,0,1,53,9.36a4.86,4.86,0,0,1,1.65,3.7A4.93,4.93,0,0,1,53,16.81a5.55,5.55,0,0,1-4,1.5,5.66,5.66,0,0,1-4-1.52,5,5,0,0,1-1.62-3.73A4.89,4.89,0,0,1,45,9.34a5.58,5.58,0,0,1,4-1.52"/><path id="rect4352-5-1" class="cls-3" d="M42.42,7.38h13.4v12H42.42Z"/><path id="path3552-6-3-7" class="cls-4" d="M54.67,5.32a5.69,5.69,0,0,1-11.35,0,5.69,5.69,0,0,1,11.35,0Z"/></g></svg>