<svg id="Layer_1" data-name="Layer 1" xmlns="http://www.w3.org/2000/svg" xmlns:xlink="http://www.w3.org/1999/xlink" viewBox="0 0 60 60"><defs><style>.cls-1{fill:url(#linear-gradient);}.cls-2{fill:url(#linear-gradient-2);}</style><linearGradient id="linear-gradient" x1="58.92" y1="1938.93" x2="88.74" y2="1968.85" gradientTransform="translate(-53.3 -1933.57)" gradientUnits="userSpaceOnUse"><stop offset="0" stop-color="#387eb8"/><stop offset="1" stop-color="#366994"/></linearGradient><linearGradient id="linear-gradient-2" x1="77.04" y1="1958.05" x2="109.02" y2="1988.68" gradientTransform="translate(-53.3 -1933.57)" gradientUnits="userSpaceOnUse"><stop offset="0" stop-color="#ffe052"/><stop offset="1" stop-color="#ffc331"/></linearGradient></defs><path class="cls-1" d="M29.9,0C15.73,0,15.58,5.5,15.58,6.63V13.5H30.17v2.06H9.78C5.45,15.56,0,18.2,0,29.88,0,40.61,4.25,44.76,8.54,44.76h5.1V37.6c0-3,1.48-8.54,8.4-8.54H36.51c2.13,0,8.13-.92,8.13-7.86V8C44.64,6.27,44.35,0,29.9,0Zm-8,4.62a2.63,2.63,0,1,1-2.62,2.62A2.62,2.62,0,0,1,21.85,4.62Z"/><path class="cls-2" d="M30.1,60c14.16,0,14.34-5.6,14.34-6.63V46.5H29.83V44.44H50.22c4.36,0,9.78-2.7,9.78-14.32,0-12.72-5.75-14.88-8.54-14.88h-5.1V22.4c0,3-1.43,8.54-8.4,8.54H23.49c-2.12,0-8.13,1-8.13,7.86V52C15.36,54.86,17.1,60,30.1,60Zm8-4.62a2.63,2.63,0,1,1,2.62-2.62A2.62,2.62,0,0,1,38.15,55.38Z"/></svg>